# xmcd
#
# Track frame offsets:
#	150
#	9389
#	19585
#	30212
#	38290
#	50503
#	62222
#	72334
#	85065
#	93975
#	103669
#	115229
#	126407
#	139462
#	150787
#	162384
#	172244
#	183449
#	191656
#	203035
#	212133
#	223207
#	234750
#	245509
#	255156
#	266926
#	276682
#	288121
#	299926
#	314495
#
# Disc length: 4326 seconds
#
# Revision: 1
# Processed by: cddbd v1.5.2PL0 Copyright (c) Steve Scherf et al.
# Submitted via: audiograbber 1.83.01
#
DISCID=c010e41e
DTITLE=Various Artist - Coast To Coast Doo Wop And Jive
DYEAR=1900
DGENRE=
TTITLE0=Nite Caps - Snap Crackle And Pop
TTITLE1=King Lets - Pretty Please
TTITLE2=Dream Lovers - Zoom Zoom Zoom
TTITLE3=Teentones - Gypsy Boogie
TTITLE4=Otis Williams And The Charms - Gum Drop
TTITLE5=Timetones - Pretty Pretty Girl
TTITLE6=Maurice Williams And The Zodiacs - Dearest Baby
TTITLE7=Fresandos - I Mean Really
TTITLE8=Monitors - My Babys Rockin
TTITLE9=Sharps - Come On
TTITLE10=Volumes - Come Back Into My Heart
TTITLE11=Cleftones - Please Say You Want Me
TTITLE12=Cole And Grandeuers - Teenage Correl
TTITLE13=Lolly Poppers - Bottle Of Pop And Lollypop
TTITLE14=Clyde McPhater - A Lovers Question
TTITLE15=Phil Demarco and The Valients - Lonely Guy
TTITLE16=Charters - I Lost You
TTITLE17=4 Mosts - I Love You
TTITLE18=Timetones - In My Heart
TTITLE19=Vito And The Salutations - Zoom
TTITLE20=Del Vikings - Flat Tyre
TTITLE21=Marcels - One Last Kiss
TTITLE22=Four Chaps - Roll Over Beethoven
TTITLE23=Rochell And The Candles - Hey Pretty Baby
TTITLE24=Sheppards - Mozelle
TTITLE25=Rochell And The Candles - So Far Away
TTITLE26=Spaniels - Stormy Weather
TTITLE27=Nutmegs - Rock Me
TTITLE28=Corvairs - Because I Love
TTITLE29=Roomates - Glory Of Love
EXTD=
EXTT0=
EXTT1=
EXTT2=
EXTT3=
EXTT4=
EXTT5=
EXTT6=
EXTT7=
EXTT8=
EXTT9=
EXTT10=
EXTT11=
EXTT12=
EXTT13=
EXTT14=
EXTT15=
EXTT16=
EXTT17=
EXTT18=
EXTT19=
EXTT20=
EXTT21=
EXTT22=
EXTT23=
EXTT24=
EXTT25=
EXTT26=
EXTT27=
EXTT28=
EXTT29=
PLAYORDER=
